<svg width="100" height="100" viewBox="0 0 100 100" fill="none" xmlns="http://www.w3.org/2000/svg">
<path d="M50 28.125C45.6735 28.125 41.4442 29.4079 37.8469 31.8116C34.2496 34.2153 31.4458 37.6317 29.7901 41.6288C28.1345 45.6259 27.7013 50.0243 28.5453 54.2676C29.3894 58.5109 31.4728 62.4087 34.532 65.468C37.5913 68.5272 41.4891 70.6106 45.7324 71.4547C49.9757 72.2987 54.3741 71.8655 58.3712 70.2099C62.3683 68.5542 65.7847 65.7504 68.1884 62.1531C70.5921 58.5558 71.875 54.3265 71.875 50C71.8684 44.2004 69.5616 38.6403 65.4607 34.5393C61.3597 30.4384 55.7996 28.1316 50 28.125ZM64.7083 43.875L48.0417 60.5417C47.7521 60.8324 47.408 61.0631 47.029 61.2206C46.65 61.378 46.2437 61.459 45.8333 61.459C45.423 61.459 45.0167 61.378 44.6377 61.2206C44.2587 61.0631 43.9146 60.8324 43.625 60.5417L35.2917 52.2083C34.7397 51.6159 34.4392 50.8324 34.4534 50.0228C34.4677 49.2132 34.7957 48.4408 35.3683 47.8682C35.9408 47.2957 36.7132 46.9677 37.5228 46.9534C38.3324 46.9391 39.1159 47.2397 39.7083 47.7917L45.8333 53.9125L60.2917 39.4583C60.8841 38.9063 61.6676 38.6058 62.4772 38.6201C63.2868 38.6344 64.0592 38.9624 64.6318 39.5349C65.2043 40.1075 65.5323 40.8799 65.5466 41.6895C65.5609 42.4991 65.2603 43.2826 64.7083 43.875Z" fill="#F29F04"/>
<path d="M91.2178 41.3668L86.6678 36.821C86.1128 36.269 85.6727 35.6126 85.373 34.8895C85.0734 34.1664 84.9201 33.3911 84.9219 32.6085V27.2835C84.9186 24.0466 83.6313 20.9433 81.3425 18.6545C79.0537 16.3657 75.9504 15.0784 72.7136 15.0751H67.3928C66.6104 15.0775 65.8352 14.9249 65.1122 14.6259C64.3891 14.327 63.7325 13.8877 63.1803 13.3335L58.6344 8.78345C56.3427 6.49757 53.238 5.21387 50.0011 5.21387C46.7642 5.21387 43.6595 6.49757 41.3678 8.78345L36.8219 13.3335C36.27 13.8884 35.6135 14.3285 34.8905 14.6282C34.1674 14.9278 33.3921 15.0812 32.6094 15.0793H27.2844C24.0476 15.0826 20.9443 16.3699 18.6555 18.6587C16.3667 20.9475 15.0794 24.0508 15.0761 27.2876V32.6085C15.0785 33.3909 14.9258 34.166 14.6269 34.889C14.328 35.6121 13.8887 36.2687 13.3344 36.821L8.78443 41.3668C6.49855 43.6585 5.21484 46.7633 5.21484 50.0001C5.21484 53.237 6.49855 56.3417 8.78443 58.6334L13.3344 63.1793C13.8894 63.7312 14.3295 64.3877 14.6291 65.1107C14.9288 65.8338 15.0821 66.6091 15.0803 67.3918V72.7168C15.0836 75.9536 16.3709 79.0569 18.6597 81.3457C20.9484 83.6345 24.0518 84.9218 27.2886 84.9251H32.6094C33.3921 84.9232 34.1674 85.0766 34.8905 85.3762C35.6135 85.6759 36.27 86.116 36.8219 86.671L41.3678 91.2168C43.659 93.5037 46.7639 94.7881 50.0011 94.7881C53.2383 94.7881 56.3432 93.5037 58.6344 91.2168L63.1803 86.6668C63.7322 86.1118 64.3886 85.6717 65.1117 85.3721C65.8348 85.0724 66.6101 84.9191 67.3928 84.921H72.7178C75.9546 84.9176 79.0579 83.6303 81.3467 81.3416C83.6355 79.0528 84.9228 75.9495 84.9261 72.7126V67.3918C84.9242 66.6091 85.0775 65.8338 85.3772 65.1107C85.6769 64.3877 86.1169 63.7312 86.6719 63.1793L91.2178 58.6334C93.5036 56.3417 94.7873 53.237 94.7873 50.0001C94.7873 46.7633 93.5036 43.6585 91.2178 41.3668ZM50.0011 78.1251C44.4385 78.1251 39.0008 76.4756 34.3757 73.3852C29.7505 70.2948 26.1457 65.9023 24.017 60.7631C21.8883 55.6239 21.3313 49.9689 22.4165 44.5132C23.5017 39.0575 26.1804 34.0461 30.1137 30.1127C34.0471 26.1794 39.0585 23.5007 44.5142 22.4155C49.9699 21.3303 55.6249 21.8873 60.7641 24.016C65.9032 26.1447 70.2958 29.7496 73.3862 34.3747C76.4766 38.9998 78.1261 44.4375 78.1261 50.0001C78.1173 57.4566 75.1513 64.6052 69.8787 69.8778C64.6062 75.1503 57.4576 78.1163 50.0011 78.1251Z" fill="#F29F04"/>
</svg>
