<svg width="227" height="60" viewBox="0 0 227 60" fill="none" xmlns="http://www.w3.org/2000/svg">
<g clip-path="url(#clip0_688_2832)">
<path d="M21.6677 18.5853C21.6677 18.5853 25.0365 20.2085 28.0925 17.9596C28.0925 17.9596 32.0826 14.6542 34.8302 17.0845C34.8302 17.0845 37.7638 15.9011 39.5095 18.7667C39.5095 18.7667 34.3723 18.0458 31.5294 22.9607C30.4684 24.7925 30.0649 26.9326 30.2417 29.041C30.3777 30.6733 30.7994 32.8497 31.9012 35.2301C31.9012 35.2301 35.5829 42.2171 33.0846 49.6984C33.0846 49.6984 31.9601 54.0648 25.8482 59.9909C25.8482 59.9909 30.8992 52.1333 27.095 42.7748C27.095 42.7748 25.2224 36.4543 17.1608 30.1881C15.9502 29.2496 14.6625 28.4108 13.3567 27.6127C12.4634 27.0687 11.008 26.0802 9.49359 24.6293C2.6652 18.082 2.09844 7.27269 8.31925 0.14052C8.36006 0.0951784 8.40086 0.045303 8.44167 -3.8147e-05C8.44167 -3.8147e-05 1.77652 13.7519 14.6081 21.5869C14.9572 21.8 15.3109 21.9859 15.6736 22.1718C17.2515 22.9743 22.6017 25.9397 24.1751 29.9977C24.1751 29.9977 23.5856 26.0031 26.7913 20.9431C26.7913 20.9431 24.6375 21.8816 21.6632 18.5853H21.6677Z" fill="url(#paint0_linear_688_2832)"/>
<path d="M54.8128 23.3688C54.7901 23.3688 54.7674 23.3642 54.7402 23.3642H54.8128V23.3688Z" fill="url(#paint1_linear_688_2832)"/>
<path d="M34.455 21.1698C34.455 21.1698 29.2271 25.4228 32.596 32.7726C32.596 32.7726 35.4298 38.8846 35.1668 41.8091C35.1668 41.8091 39.506 33.1716 46.5021 28.9866C46.5021 28.9866 56.246 24.0036 57.6606 16.1233C57.6606 16.1233 60.3176 7.70796 53.3214 -3.8147e-05C53.3214 -3.8147e-05 58.1684 10.6506 50.5375 18.6443C49.4402 19.7959 48.1526 20.7436 46.7787 21.5461C44.3348 22.9698 38.6944 26.5382 37.112 30.0022C37.112 30.0022 36.3004 28.4017 35.4162 27.3815C34.9039 26.7921 34.4958 26.112 34.2464 25.3684C33.8791 24.2938 33.7023 22.8111 34.455 21.1743V21.1698Z" fill="url(#paint2_linear_688_2832)"/>
<path d="M35.2751 49.8299C35.2751 49.8299 36.6354 38.7712 44.2119 33.625C44.5565 33.3892 44.9192 33.1806 45.2819 32.9766C47.9389 31.4576 60.8249 23.6408 60.8249 14.7449C60.8249 14.7449 64.7696 26.1709 54.8761 33.9106C53.6927 34.8356 52.3824 35.5746 51.0176 36.1913C47.413 37.8235 37.5241 42.8474 35.2751 49.8299Z" fill="url(#paint3_linear_688_2832)"/>
<path d="M37.3739 56.9802C37.3739 56.9802 36.2631 50.3014 42.4113 45.0282C43.9529 43.7088 45.7439 42.7113 47.6437 41.9994C50.3687 40.9793 56.2313 38.4175 57.6822 34.8627C57.6822 34.8627 58.0812 43.3461 47.4895 47.2545C47.4895 47.2545 38.3306 50.6868 37.3739 56.9802Z" fill="url(#paint4_linear_688_2832)"/>
<path d="M26.3292 49.8299C26.3292 49.8299 24.969 38.7712 17.3925 33.625C17.0479 33.3892 16.6852 33.1806 16.3224 32.9766C13.6609 31.4576 0.774953 23.6408 0.774953 14.7449C0.774953 14.7449 -3.16973 26.1709 6.72372 33.9106C7.90712 34.8356 9.21748 35.5746 10.5823 36.1913C14.1869 37.8235 24.0758 42.8474 26.3247 49.8299H26.3292Z" fill="url(#paint5_linear_688_2832)"/>
<path d="M24.2297 56.9802C24.2297 56.9802 25.3406 50.3014 19.1923 45.0282C17.6507 43.7088 15.8597 42.7113 13.9599 41.9994C11.2349 40.9793 5.37231 38.4175 3.92139 34.8627C3.92139 34.8627 3.52239 43.3461 14.1141 47.2545C14.1141 47.2545 23.273 50.6868 24.2297 56.9802Z" fill="url(#paint6_linear_688_2832)"/>
<path d="M183.346 24.7607V24.7698C183.31 24.7607 183.269 24.7562 183.232 24.7562L183.346 24.7653V24.7607Z" fill="white"/>
<path d="M79.7149 20.3265H76.541C76.0678 20.3265 75.6841 20.7101 75.6841 21.1834V39.0478C75.6841 39.5211 76.0678 39.9048 76.541 39.9048H79.7149C80.1882 39.9048 80.5719 39.5211 80.5719 39.0478V21.1834C80.5719 20.7101 80.1882 20.3265 79.7149 20.3265Z" fill="white"/>
<path d="M106.284 21.0791V39.1476C106.284 39.5647 105.948 39.9048 105.527 39.9048H101.469L101.396 39.8322L100.748 39.1975L88.3288 27.114V39.9002H83.4365V21.1471C83.4365 20.6937 83.8038 20.3219 84.2617 20.3219H88.3288V20.3491L88.356 20.3219L101.401 33.3666V21.0791C101.401 20.662 101.736 20.3265 102.158 20.3265H105.527C105.948 20.3265 106.284 20.662 106.284 21.0791Z" fill="white"/>
<path d="M114.011 26.715V28.0344H125.673C126.126 28.0344 126.489 28.4017 126.489 28.8506V31.358C126.489 31.8114 126.122 32.1741 125.673 32.1741H115.449C114.655 32.1741 114.011 32.8179 114.011 33.6114V39.9002H109.119V25.0963C109.119 22.4575 111.259 20.3174 113.898 20.3174H126.743C127.196 20.3174 127.559 20.6846 127.559 21.1335V23.6409C127.559 24.0943 127.192 24.457 126.743 24.457H116.26C115.018 24.457 114.011 25.4636 114.011 26.7059V26.715Z" fill="white"/>
<path d="M134.51 26.715V28.0344H146.181C146.625 28.0344 146.988 28.3972 146.988 28.8415V31.367C146.988 31.8114 146.625 32.1741 146.181 32.1741H134.51V33.4935C134.51 34.7359 135.517 35.7424 136.759 35.7424H147.255C147.7 35.7424 148.062 36.1052 148.062 36.5495V39.075C148.062 39.5194 147.7 39.8821 147.255 39.8821H134.242C131.69 39.8821 129.618 37.81 129.618 35.2573V25.0918C129.618 22.4529 131.758 20.3128 134.397 20.3128H147.255C147.7 20.3128 148.062 20.6756 148.062 21.1199V23.6454C148.062 24.0897 147.7 24.4525 147.255 24.4525H136.759C135.517 24.4525 134.51 25.459 134.51 26.7014V26.715Z" fill="white"/>
<path d="M172.482 39.9048H168.669C168.384 39.9048 168.116 39.7597 167.962 39.5194L164.974 34.8583H159.601L157.357 30.9816H167.259C168.488 30.9816 169.485 29.9841 169.485 28.7554V26.6697C169.485 25.5362 168.628 24.5931 167.522 24.4661H157.13C156.667 24.4661 156.291 24.8424 156.291 25.3049V39.066C156.291 39.5284 155.915 39.9048 155.452 39.9048H152.242C151.78 39.9048 151.403 39.5284 151.403 39.066V21.1607C151.403 20.6982 151.78 20.3219 152.242 20.3219H168.878L169.776 20.4217L169.871 20.4353C172.156 20.9159 173.87 22.9426 173.87 25.3593V29.8254C173.87 31.834 172.686 33.5751 170.973 34.3777L171.82 36.0417L173.231 38.667C173.53 39.2247 173.126 39.9048 172.492 39.9048H172.482Z" fill="white"/>
<path d="M198.282 39.9048H194.41C194.133 39.9048 193.875 39.7642 193.725 39.5284L190.733 34.8583H185.355L183.111 30.9816H193.018C194.242 30.9816 195.244 29.9841 195.244 28.7554V26.6697C195.244 25.5362 194.383 24.5931 193.276 24.4661H182.861C182.412 24.4661 182.05 24.8288 182.05 25.2777V39.0886C182.05 39.5375 181.687 39.9002 181.238 39.9002H177.978C177.529 39.9002 177.167 39.5375 177.167 39.0886V21.1335C177.167 20.6846 177.529 20.3219 177.978 20.3219H194.641L195.539 20.4217L195.634 20.4353C197.915 20.9159 199.624 22.9426 199.624 25.3593V29.8254C199.624 31.834 198.441 33.5751 196.727 34.3822L197.575 36.0417L199.007 38.7032C199.298 39.2473 198.908 39.9048 198.291 39.9048H198.282Z" fill="white"/>
<path d="M217.502 20.0907H211.1C210.778 20.0907 210.488 20.2766 210.352 20.5668L201.882 38.735C201.628 39.2836 202.027 39.9093 202.63 39.9048H206.207C206.525 39.9003 206.82 39.7144 206.951 39.4242L208.397 36.3228H220.195L221.642 39.4242C221.778 39.7144 222.068 39.9003 222.39 39.9003H225.872C226.475 39.9003 226.874 39.2791 226.62 38.7305L218.241 20.5713C218.105 20.2811 217.815 20.0907 217.493 20.0907H217.502ZM210.334 32.1787L214.305 23.6681L218.277 32.1787H210.338H210.334Z" fill="white"/>
<path d="M183.233 24.7562L181.7 24.5975C182.222 24.6065 182.734 24.661 183.233 24.7562Z" fill="white"/>
</g>
<defs>
<linearGradient id="paint0_linear_688_2832" x1="21.7493" y1="2.66602" x2="21.7493" y2="93.6658" gradientUnits="userSpaceOnUse">
<stop stop-color="#E9BB31"/>
<stop offset="0.62" stop-color="#C82832"/>
<stop offset="1" stop-color="#8D242B"/>
</linearGradient>
<linearGradient id="paint1_linear_688_2832" x1="54.7765" y1="2.66154" x2="54.7765" y2="77.5631" gradientUnits="userSpaceOnUse">
<stop stop-color="#E9BB31"/>
<stop offset="0.62" stop-color="#C82832"/>
<stop offset="1" stop-color="#8D242B"/>
</linearGradient>
<linearGradient id="paint2_linear_688_2832" x1="44.8109" y1="2.66602" x2="44.8109" y2="93.6658" gradientUnits="userSpaceOnUse">
<stop stop-color="#E9BB31"/>
<stop offset="0.62" stop-color="#C82832"/>
<stop offset="1" stop-color="#8D242B"/>
</linearGradient>
<linearGradient id="paint3_linear_688_2832" x1="48.4377" y1="2.66598" x2="48.4377" y2="93.6658" gradientUnits="userSpaceOnUse">
<stop stop-color="#E9BB31"/>
<stop offset="0.62" stop-color="#C82832"/>
<stop offset="1" stop-color="#8D242B"/>
</linearGradient>
<linearGradient id="paint4_linear_688_2832" x1="47.485" y1="2.66596" x2="47.485" y2="93.6657" gradientUnits="userSpaceOnUse">
<stop stop-color="#E9BB31"/>
<stop offset="0.62" stop-color="#C82832"/>
<stop offset="1" stop-color="#8D242B"/>
</linearGradient>
<linearGradient id="paint5_linear_688_2832" x1="13.1622" y1="2.66598" x2="13.1622" y2="93.6658" gradientUnits="userSpaceOnUse">
<stop stop-color="#E9BB31"/>
<stop offset="0.62" stop-color="#C82832"/>
<stop offset="1" stop-color="#8D242B"/>
</linearGradient>
<linearGradient id="paint6_linear_688_2832" x1="14.1141" y1="2.66596" x2="14.1141" y2="93.6657" gradientUnits="userSpaceOnUse">
<stop stop-color="#E9BB31"/>
<stop offset="0.62" stop-color="#C82832"/>
<stop offset="1" stop-color="#8D242B"/>
</linearGradient>
<clipPath id="clip0_688_2832">
<rect width="226.706" height="60" fill="white"/>
</clipPath>
</defs>
</svg>
